<?xml version="1.0" encoding="UTF-8"?>
<svg id="Layer_2" data-name="Layer 2" xmlns="http://www.w3.org/2000/svg" viewBox="0 0 37.07 37.07">
  <defs>
    <style>
      .cls-1 {
        fill: #fff;
        stroke-width: 0px;
      }
    </style>
  </defs>
  <g id="Layer_4" data-name="Layer 4">
    <g>
      <path class="cls-1" d="M11.88,37.07c-.51-.15-1.03-.25-1.51-.46-1.19-.52-2.02-1.41-2.54-2.6-1.77-3.96-3.54-7.91-5.32-11.87-.09-.21-.25-.41-.42-.57C.77,20.36.05,18.87.02,17.07c-.02-1.34-.06-2.69.07-4.01.31-2.95,2.89-5.28,5.88-5.32,3.61-.04,7.21-.01,10.82-.02,1.28,0,2.55-.13,3.77-.56,1.84-.65,3.28-1.75,3.86-3.7.18-.61.23-1.28.28-1.92.09-1.09,1.02-1.78,2.01-1.48.6.19,1.03.73,1.08,1.36,0,.1,0,.19,0,.29,0,9.16,0,18.31,0,27.47,0,.89-.47,1.51-1.24,1.67-.86.17-1.67-.38-1.81-1.24-.08-.52-.06-1.06-.17-1.58-.44-2.22-1.88-3.57-3.95-4.26-.94-.31-1.94-.5-2.93-.57-1.46-.09-2.94-.02-4.46-.02.07.15.12.29.18.43,1.03,2.26,2.04,4.53,3.11,6.76,1.42,2.96-.45,6.22-3.44,6.64-.05,0-.09.04-.13.05h-1.09ZM24.69,8.39c-.09.06-.14.08-.19.12-2.23,1.61-4.71,2.34-7.46,2.31-3.59-.04-7.19-.02-10.78,0-1.84,0-3.14,1.32-3.16,3.15-.01.98,0,1.95,0,2.93.02,1.86,1.31,3.17,3.17,3.17,3.67,0,7.33,0,11,0,1.92,0,3.76.38,5.48,1.26.66.34,1.28.75,1.94,1.13v-14.07ZM6.37,23.19c.04.1.07.18.1.25,1.39,3.1,2.78,6.2,4.17,9.29.08.19.18.37.31.53.55.71,1.57.92,2.27.49.72-.44.9-1.23.49-2.13-.37-.81-.74-1.62-1.11-2.43-.92-2-1.84-4-2.76-6h-3.47Z"/>
      <path class="cls-1" d="M37.07,23.53c-.04.07-.08.15-.11.22-.34.81-1.24,1.21-2.03.84-1.1-.51-2.18-1.06-3.26-1.63-.74-.39-.98-1.3-.6-2.03.37-.71,1.24-1.05,1.97-.71,1.1.52,2.19,1.05,3.25,1.64.33.19.52.62.78.94v.72Z"/>
      <path class="cls-1" d="M37.07,8.11c-.23.62-.71.96-1.28,1.23-.85.39-1.68.84-2.53,1.25-.89.44-1.8.17-2.2-.63-.4-.81-.06-1.69.83-2.13.88-.44,1.77-.88,2.65-1.32,1.2-.6,1.97-.33,2.53.88v.72Z"/>
      <path class="cls-1" d="M37.07,15.78c-.34.92-1.01,1.26-1.97,1.22-.88-.04-1.76,0-2.64-.01-.84-.02-1.49-.6-1.55-1.38-.07-.83.44-1.54,1.25-1.69.21-.04.43-.03.65-.03.78,0,1.57.03,2.35,0,.95-.05,1.6.32,1.91,1.24v.65Z"/>
    </g>
  </g>
</svg>