<?xml version="1.0" encoding="UTF-8"?>
<svg id="Layer_2" data-name="Layer 2" xmlns="http://www.w3.org/2000/svg" viewBox="0 0 34 33.96">
  <defs>
    <style>
      .cls-1 {
        fill: #fff;
        stroke-width: 0px;
      }
    </style>
  </defs>
  <g id="Layer_4" data-name="Layer 4">
    <path class="cls-1" d="M27.56,33.96H6.44c-.07-.02-.15-.05-.22-.06-2.87-.36-5.2-2.37-5.96-5.15-.1-.38-.17-.77-.26-1.15,0-5.17,0-10.34,0-15.51.02-.1.05-.19.06-.29.33-2.68,2.37-5.05,4.97-5.82,1.08-.32,2.18-.32,3.29-.3.24,0,.33-.06.4-.31C9.44,2.5,11.83.39,14.8.09c1.23-.12,2.48-.1,3.71-.05.73.03,1.49.14,2.17.38,2.41.83,3.94,2.53,4.6,4.98.06.22.14.28.36.28.42-.01.84,0,1.26,0,3.28.04,6.02,2.16,6.86,5.28.1.37.16.75.24,1.13v15.44c-.02.09-.05.19-.06.28-.36,2.87-2.55,5.3-5.38,5.95-.33.08-.67.13-1,.2ZM31.15,19.85h-12.73c0,.21,0,.39,0,.58,0,.35.02.71-.03,1.06-.09.69-.74,1.19-1.48,1.15-.7-.03-1.28-.59-1.31-1.3-.02-.49,0-.99,0-1.49H2.85c0,.1-.01.18-.01.25,0,2.26,0,4.53,0,6.79,0,.22,0,.44.05.66.38,2.12,2.07,3.56,4.23,3.57,6.59,0,13.19,0,19.78,0,.23,0,.47,0,.69-.05,2.12-.38,3.56-2.07,3.57-4.22.01-2.24,0-4.48,0-6.73,0-.09,0-.17-.01-.28ZM31.15,16.98c0-.12.02-.22.02-.32,0-1.27,0-2.54,0-3.81-.01-2.51-1.85-4.34-4.36-4.35-6.53,0-13.06,0-19.59,0-2.52,0-4.36,1.83-4.37,4.34,0,1.27,0,2.54,0,3.81,0,.11.01.21.02.32h28.29ZM22.37,5.65c-.02-.07-.03-.14-.06-.2-.7-1.55-1.9-2.46-3.6-2.58-1.09-.08-2.19-.06-3.28,0-.57.03-1.16.18-1.69.42-1.03.46-1.73,1.27-2.14,2.36h10.76Z"/>
  </g>
</svg>