<?xml version="1.0" encoding="UTF-8"?>
<svg id="Layer_2" data-name="Layer 2" xmlns="http://www.w3.org/2000/svg" viewBox="0 0 30 29.95">
  <defs>
    <style>
      .cls-1 {
        fill: #fff;
        stroke-width: 0px;
      }
    </style>
  </defs>
  <g id="Layer_4" data-name="Layer 4">
    <g>
      <path class="cls-1" d="M30,16.84c-.1.43-.17.88-.31,1.3-.82,2.56-3.2,4.3-5.9,4.31-1.66.01-3.32,0-4.98,0-.79,0-1.3-.51-1.31-1.3,0-.8,0-1.6,0-2.4,0-.77.51-1.28,1.29-1.28,1.22,0,2.44,0,3.66,0,.77,0,1.28.51,1.29,1.29,0,.39,0,.77,0,1.18.78.02,1.46-.19,2.07-.61,1.08-.74,1.67-1.76,1.68-3.08.01-3.35.02-6.7,0-10.06-.01-2.07-1.63-3.69-3.71-3.7-3.98-.02-7.97-.01-11.95,0-1.41,0-2.48.65-3.23,1.84-.3.48-.72.71-1.28.63-.51-.07-.85-.37-1.01-.86-.12-.37-.06-.73.15-1.06C7.54,1.33,9.08.33,11.09.05c.06,0,.11-.03.16-.05,4.37,0,8.75,0,13.12,0,.05.02.11.05.16.05,2.52.33,4.57,2.1,5.24,4.54.09.33.15.68.23,1.02v11.23Z"/>
      <path class="cls-1" d="M0,28.01c.12-.58.17-1.18.36-1.74,1.14-3.52,3.54-5.67,7.21-6.21,4.71-.7,9.01,2.52,9.82,7.23.08.44.1.89.11,1.34.02.74-.53,1.31-1.24,1.31-.7,0-1.24-.54-1.26-1.27-.09-3.13-2.14-5.54-5.21-6.13-3.33-.63-6.76,1.83-7.21,5.18-.04.28-.06.56-.07.84-.03.75-.42,1.26-1.08,1.36-.62.1-1.14-.25-1.4-.94,0-.02-.02-.03-.04-.05,0-.31,0-.62,0-.94Z"/>
      <path class="cls-1" d="M8.74,7.49c2.76,0,5.02,2.24,5.01,4.99,0,2.74-2.25,4.98-4.99,4.99-2.75,0-5.01-2.24-5.01-5,0-2.74,2.24-4.98,4.99-4.99ZM8.74,9.99c-1.38,0-2.48,1.11-2.48,2.5,0,1.38,1.12,2.49,2.49,2.49,1.38,0,2.51-1.13,2.5-2.52,0-1.37-1.13-2.47-2.51-2.47Z"/>
    </g>
  </g>
</svg>