<?xml version="1.0" encoding="UTF-8"?>
<svg id="Layer_2" data-name="Layer 2" xmlns="http://www.w3.org/2000/svg" viewBox="0 0 30.58 30.59">
  <defs>
    <style>
      .cls-1 {
        fill: #fff;
        stroke-width: 0px;
      }
    </style>
  </defs>
  <g id="Layer_4" data-name="Layer 4">
    <g>
      <path class="cls-1" d="M30.58,16.55c-.08,0-.16.01-.24.01-4.49,0-8.98,0-13.47,0h-.29V0h.31c3.24,0,6.49,0,9.73,0,2.02,0,3.53,1.26,3.91,3.24,0,.04.03.07.05.11v13.2ZM19.13,14h8.9v-.34c0-3.21,0-6.43,0-9.64,0-.99-.48-1.47-1.46-1.47-2.37,0-4.74,0-7.1,0-.11,0-.21,0-.33,0v11.45Z"/>
      <path class="cls-1" d="M3.35,30.59c-.15-.04-.3-.08-.46-.12C1.24,30.06.01,28.54,0,26.84c-.01-4.2,0-8.4,0-12.6,0-.06,0-.12,0-.19h14.01v.39c0,5.26,0,10.51,0,15.77,0,.13,0,.26.01.39H3.35ZM2.56,16.58c0,.12,0,.23,0,.33,0,3.22,0,6.45,0,9.67,0,.96.48,1.45,1.45,1.45,2.38,0,4.75,0,7.13,0,.1,0,.21,0,.32,0v-11.45H2.56Z"/>
      <path class="cls-1" d="M16.55,30.59c0-.13.01-.26.01-.39,0-3.56,0-7.13,0-10.69v-.39h14.02v8.12c-.02.05-.04.11-.06.16-.32,1.55-1.24,2.56-2.75,3.04-.18.06-.36.09-.54.14h-10.69ZM19.13,21.69v6.33c.1,0,.19.01.28.01,2.41,0,4.81,0,7.22,0,.9,0,1.39-.5,1.4-1.41,0-1.54,0-3.08,0-4.63,0-.1,0-.19-.01-.31h-8.88Z"/>
      <path class="cls-1" d="M14,11.46H0c0-.12,0-.22,0-.33,0-2.4,0-4.8,0-7.2C0,1.67,1.67,0,3.95,0c3.24,0,6.49,0,9.73,0,.1,0,.2,0,.32,0v11.46ZM11.45,2.55c-.12,0-.22,0-.31,0-2.39,0-4.77,0-7.16,0-.93,0-1.42.49-1.42,1.41,0,1.54,0,3.08,0,4.63,0,.1,0,.19.02.3h8.88V2.55Z"/>
    </g>
  </g>
</svg>