<?xml version="1.0" encoding="UTF-8"?>
<svg id="Layer_2" data-name="Layer 2" xmlns="http://www.w3.org/2000/svg" viewBox="0 0 33.79 31.5">
  <defs>
    <style>
      .cls-1 {
        fill: #fff;
        stroke-width: 0px;
      }
    </style>
  </defs>
  <g id="Layer_4" data-name="Layer 4">
    <path class="cls-1" d="M21.93,28.42c-.16-1.1-.35-2.15-.45-3.2-.32-3.23.05-6.38,1.06-9.46.22-.68.78-1.09,1.5-1.06.96.03,1.91.12,2.87.19.08,0,.16,0,.3,0-.08-.85-.14-1.68-.24-2.51-.19-1.53-.52-3.02-1.14-4.44-1.08-2.49-2.96-4.02-5.62-4.54-2.17-.43-4.36-.43-6.54-.02-2.94.55-4.87,2.3-5.92,5.07-.64,1.7-.92,3.47-1.06,5.26-.03.38-.05.76-.07,1.17.55-.05,1.06-.11,1.58-.15.53-.03,1.05-.05,1.58-.05.71,0,1.27.4,1.49,1.08.9,2.77,1.29,5.62,1.12,8.53-.11,2.02-.47,3.99-1.09,5.92-.26.82-.8,1.22-1.66,1.21-1.56-.02-3.11-.14-4.61-.62-2.51-.81-4.13-2.46-4.71-5.04-.51-2.27-.47-4.52.45-6.7.51-1.22,1.34-2.18,2.45-2.88.22-.14.3-.28.3-.54.06-2.52.3-5.02,1.06-7.44.68-2.15,1.73-4.07,3.5-5.54,1.52-1.27,3.29-1.98,5.22-2.32,2.78-.49,5.56-.47,8.31.25,3.4.89,5.74,3.01,7.09,6.23.85,2.02,1.24,4.14,1.43,6.31.07.87.09,1.75.15,2.62,0,.11.09.25.18.3,1.98,1.21,2.9,3.05,3.2,5.28.2,1.46.18,2.92-.17,4.36-.7,2.88-2.58,4.61-5.41,5.3-1.02.25-2.08.37-3.13.42-2.55.11-5.1.16-7.65-.04-.91-.07-1.55-.59-1.62-1.38-.09-1,.63-1.74,1.66-1.71,1.44.05,2.87.09,4.31.14.09,0,.19,0,.28,0ZM25.16,17.69c-.95,3.62-.95,7.12-.02,10.63.96-.05,1.88-.16,2.78-.46,1.48-.49,2.35-1.51,2.65-3.03.23-1.18.23-2.36,0-3.54-.29-1.52-1.14-2.59-2.63-3.03-.89-.26-1.82-.38-2.77-.58ZM8.65,17.69c-.94.19-1.86.31-2.74.57-1.55.46-2.46,1.56-2.67,3.15-.12.89-.14,1.82-.08,2.72.15,2.16,1.19,3.39,3.28,3.89.72.17,1.47.24,2.21.35.93-3.58.93-7.07-.01-10.68Z"/>
  </g>
</svg>