<?xml version="1.0" encoding="UTF-8"?>
<svg id="Layer_2" data-name="Layer 2" xmlns="http://www.w3.org/2000/svg" viewBox="0 0 29.93 30">
  <defs>
    <style>
      .cls-1 {
        fill: #fff;
        stroke-width: 0px;
      }
    </style>
  </defs>
  <g id="Layer_4" data-name="Layer 4">
    <g>
      <path class="cls-1" d="M23.03,30H6.89c-.54-.13-1.09-.22-1.6-.41-2.49-.93-4.05-3.24-4.05-5.96,0-4.34,0-8.69,0-13.03,0-.21-.05-.36-.2-.51-.47-.47-.83-1.04-.92-1.7C.02,7.65,0,6.89,0,6.14.02,3.65,1.58,1.37,3.9.47,4.45.26,5.04.15,5.61,0c6.24,0,12.48,0,18.71,0,.05.02.11.05.16.05,2.51.32,4.56,2.11,5.23,4.55.1.35.15.72.23,1.08v2.29c-.02.06-.05.12-.06.19-.13.72-.44,1.36-.94,1.88-.19.19-.25.38-.25.64,0,4.31,0,8.63,0,12.94,0,2.96-1.86,5.42-4.66,6.17-.33.09-.66.14-.99.21ZM3.74,11.26v.31c0,4.02,0,8.05,0,12.07,0,2.22,1.61,3.85,3.83,3.85,4.93,0,9.86,0,14.8,0,2.21,0,3.83-1.63,3.83-3.86,0-4.02,0-8.05,0-12.07,0-.1,0-.2,0-.31H3.74ZM14.95,8.75c3.65,0,7.31,0,10.96,0,.14,0,.27,0,.41,0,.53-.04,1.06-.47,1.08-.99.03-.8.07-1.62-.09-2.39-.36-1.73-1.87-2.85-3.69-2.85-4.18,0-8.36,0-12.54,0-1.62,0-3.24-.01-4.85,0-1.75.01-3.25,1.15-3.6,2.85-.16.77-.09,1.59-.09,2.39,0,.18.14.39.26.54.28.36.67.46,1.12.46,3.68,0,7.37,0,11.05,0Z"/>
      <path class="cls-1" d="M14.97,15c1.25,0,2.49,0,3.74,0,.61,0,1.13.44,1.22,1.02.1.62-.22,1.2-.8,1.4-.16.06-.34.08-.51.08-2.44,0-4.87,0-7.31,0-.61,0-1.07-.31-1.25-.83-.18-.49-.06-1.07.38-1.37.24-.17.57-.29.86-.29,1.23-.03,2.46-.01,3.68-.01Z"/>
    </g>
  </g>
</svg>