<?xml version="1.0" encoding="UTF-8"?>
<svg id="Layer_2" data-name="Layer 2" xmlns="http://www.w3.org/2000/svg" viewBox="0 0 31.93 33.32">
  <defs>
    <style>
      .cls-1 {
        fill: #fff;
        stroke-width: 0px;
      }
    </style>
  </defs>
  <g id="Layer_4" data-name="Layer 4">
    <g>
      <path class="cls-1" d="M16.25,0c.72.11,1.44.2,2.15.33.46.08.91.21,1.35.34.81.24,1.24.98,1.02,1.73-.22.77-.98,1.17-1.81.93-1.28-.38-2.58-.59-3.91-.54-4.53.17-8.04,2.17-10.45,6-2.84,4.53-2.34,10.49,1.12,14.55.16.19.33.27.58.27,5.98,0,11.95,0,17.93,0,.25,0,.42-.08.58-.27,2.18-2.64,3.15-5.66,2.91-9.08-.02-.26-.02-.53.05-.77.16-.63.76-1.03,1.4-.99.65.04,1.23.5,1.27,1.14.06,1.05.1,2.1.02,3.15-.2,2.68-1.29,5.59-3.28,8.07.15.13.31.26.46.39,1.41,1.24,2.36,2.76,2.81,4.58.44,1.81-.85,3.48-2.71,3.48-8.31,0-16.62,0-24.92,0-1.86,0-3.16-1.67-2.72-3.48.44-1.81,1.38-3.33,2.78-4.56.15-.13.3-.25.44-.38,0,0,.01-.02.03-.05-.05-.08-.11-.17-.17-.25C-2.84,16.78,0,5.4,9,1.35,10.6.63,12.27.19,14.01.06c.1,0,.19-.04.28-.06.65,0,1.3,0,1.95,0ZM27.75,30.52c-.23-.96-.63-1.81-1.29-2.5-.49-.53-1.06-.99-1.61-1.46-.13-.11-.33-.17-.49-.18-1.07-.02-2.15,0-3.22,0-4.97,0-9.93,0-14.9,0-.15,0-.33,0-.43.08-.64.56-1.31,1.11-1.88,1.74-.59.64-.94,1.44-1.14,2.32h24.97Z"/>
      <path class="cls-1" d="M31.93,5.86c-.21.61-.67.94-1.26,1.15-.59.21-1.17.47-1.75.69-.2.07-.31.19-.39.39-.26.69-.54,1.37-.82,2.05-.26.63-.73.97-1.33.97-.59,0-1.08-.35-1.33-.97-.28-.69-.54-1.39-.84-2.08-.06-.15-.21-.3-.36-.37-.67-.3-1.35-.58-2.03-.86-.61-.25-.98-.68-.99-1.35-.01-.61.37-1.08,1.04-1.34.66-.25,1.31-.51,1.97-.75.22-.08.33-.2.41-.41.22-.58.48-1.14.68-1.72C25.13.67,25.46.21,26.07,0h.59c.61.19.95.63,1.15,1.21.22.63.48,1.25.75,1.86.05.12.18.25.3.3.62.26,1.23.52,1.86.74.59.21,1.02.55,1.21,1.15v.59Z"/>
      <path class="cls-1" d="M17.36,9.71c.63,0,1.17.44,1.34,1.08.15.55.29,1.11.41,1.67.05.21.15.3.35.35.55.12,1.09.26,1.64.4.66.17,1.1.71,1.11,1.35,0,.64-.43,1.19-1.1,1.36-.55.15-1.11.28-1.67.41-.19.04-.29.14-.33.33-.12.55-.26,1.09-.4,1.64-.17.68-.72,1.13-1.37,1.12-.64,0-1.18-.44-1.35-1.11-.15-.57-.27-1.14-.43-1.7-.03-.12-.17-.25-.28-.29-.56-.17-1.13-.31-1.69-.46-.68-.19-1.12-.75-1.1-1.39.03-.66.47-1.18,1.17-1.34.54-.13,1.07-.26,1.61-.37.19-.04.27-.13.31-.31.13-.56.27-1.12.41-1.67.17-.66.73-1.1,1.37-1.09Z"/>
    </g>
  </g>
</svg>
