<?xml version="1.0" encoding="UTF-8"?>
<svg id="Layer_2" data-name="Layer 2" xmlns="http://www.w3.org/2000/svg" viewBox="0 0 33.32 33.32">
  <defs>
    <style>
      .cls-1 {
        fill: #fff;
        stroke-width: 0px;
      }
    </style>
  </defs>
  <g id="Layer_4" data-name="Layer 4">
    <g>
      <path class="cls-1" d="M0,1.7c.04-.11.09-.21.13-.32C.47.45,1.43-.13,2.37.02c1.01.16,1.75.97,1.79,1.98,0,.14,0,.28,0,.42,0,7.71,0,15.42,0,23.12,0,1.75,1.04,3.12,2.67,3.51.33.08.69.1,1.03.1,7.75,0,15.51,0,23.26,0,1.08,0,1.91.62,2.14,1.59.26,1.09-.37,2.17-1.45,2.49-.08.02-.16.05-.25.08H6.96c-.07-.02-.14-.05-.22-.06-3.17-.39-5.72-2.62-6.51-5.71-.1-.39-.16-.8-.24-1.2C0,18.14,0,9.92,0,1.7Z"/>
      <path class="cls-1" d="M16.66,15.27c0-2.53,0-5.05,0-7.58,0-1.11.74-1.96,1.82-2.11,1.18-.17,2.28.74,2.34,1.94,0,.08,0,.15,0,.23,0,5.02,0,10.04,0,15.06,0,1.2-.84,2.12-1.97,2.18-1.21.06-2.19-.87-2.2-2.11,0-2.54,0-5.07,0-7.61Z"/>
      <path class="cls-1" d="M8.33,18.73c0-1.4-.01-2.8,0-4.19.01-1.03.78-1.87,1.81-2.02.97-.14,1.95.48,2.24,1.44.07.22.1.47.1.7,0,2.73,0,5.46,0,8.19,0,1.23-.91,2.15-2.09,2.15-1.16,0-2.07-.93-2.07-2.14,0-1.38,0-2.75,0-4.13h0Z"/>
      <path class="cls-1" d="M24.99,18.73c0-1.4-.01-2.8,0-4.19.01-1.03.78-1.87,1.81-2.02.97-.14,1.95.47,2.24,1.43.07.22.1.47.1.7,0,2.73,0,5.46,0,8.19,0,1.23-.91,2.15-2.09,2.15-1.18,0-2.07-.93-2.07-2.17,0-1.37,0-2.73,0-4.1h0Z"/>
    </g>
  </g>
</svg>
