<?xml version="1.0" encoding="UTF-8"?>
<svg id="Layer_2" data-name="Layer 2" xmlns="http://www.w3.org/2000/svg" viewBox="0 0 30 30">
  <defs>
    <style>
      .cls-1 {
        fill: #fff;
        stroke-width: 0px;
      }
    </style>
  </defs>
  <g id="Layer_4" data-name="Layer 4">
    <g>
      <path class="cls-1" d="M0,24.37C0,18.13,0,11.88,0,5.62c.02-.05.04-.11.05-.16C.42,3.07,1.72,1.39,3.95.46,4.48.24,5.06.15,5.62,0c6.25,0,12.5,0,18.75,0,.05.02.11.05.16.05,2.51.32,4.57,2.11,5.24,4.55.1.35.15.72.23,1.08v18.63c-.02.08-.05.17-.06.25-.32,2.54-2.25,4.68-4.74,5.26-.29.07-.59.12-.88.18H5.68c-.07-.02-.13-.04-.2-.05-2.53-.32-4.59-2.1-5.26-4.56C.13,25.06.07,24.71,0,24.37ZM27.1,25.39c.3-.6.4-1.14.4-1.72,0-5.79,0-11.58,0-17.37,0-.21,0-.43-.04-.64-.34-1.91-1.84-3.15-3.82-3.15-5.75,0-11.5,0-17.25,0-.24,0-.49,0-.73.05-1.88.34-3.14,1.83-3.14,3.74,0,3.87,0,7.73,0,11.6,0,.08,0,.17.02.3.12-.11.2-.18.28-.26,1.4-1.39,2.78-2.8,4.2-4.17,1.13-1.09,2.51-1.64,4.07-1.68,1.82-.05,3.38.6,4.66,1.89,3.7,3.7,7.4,7.4,11.1,11.1.08.08.15.18.26.32ZM25.39,27.18c-.12-.13-.15-.17-.19-.21-3.77-3.77-7.53-7.55-11.31-11.31-1.49-1.48-3.79-1.46-5.29.02-1.98,1.97-3.95,3.95-5.92,5.93-.09.09-.16.25-.16.38-.02.6-.03,1.19,0,1.79.02.37.06.74.16,1.09.49,1.61,1.92,2.63,3.67,2.63,5.76,0,11.52,0,17.28,0,.15,0,.3.01.44-.02.42-.08.83-.18,1.32-.3Z"/>
      <path class="cls-1" d="M15.63,8.73c.02-2.44,1.98-4.38,4.39-4.35,2.45.02,4.37,1.98,4.35,4.43-.02,2.4-2.01,4.33-4.44,4.31-2.38-.02-4.32-2-4.3-4.39ZM21.87,8.75c0-1.03-.82-1.86-1.85-1.87-1.04-.01-1.91.86-1.9,1.9.01,1.03.85,1.85,1.87,1.85,1.05,0,1.87-.83,1.87-1.87Z"/>
    </g>
  </g>
</svg>
