<?xml version="1.0" encoding="UTF-8"?>
<svg id="Layer_2" data-name="Layer 2" xmlns="http://www.w3.org/2000/svg" viewBox="0 0 37.16 31.01">
  <defs>
    <style>
      .cls-1 {
        fill: #fff;
        stroke-width: 0px;
      }
    </style>
  </defs>
  <g id="Layer_4" data-name="Layer 4">
    <g>
      <path class="cls-1" d="M37.16,1.18v.73c-.36.94-1.07,1.2-2.03,1.19-6.84-.02-13.68-.01-20.53-.01-2.25,0-4.5,0-6.75,0-1.4,0-2.59.5-3.56,1.55.09.1.17.19.26.27.94.87,2.05,1.29,3.33,1.29,8.18,0,16.37,0,24.55,0,1.82,0,3.22.8,4.12,2.38.29.51.41,1.12.61,1.69v16.65s-.04.06-.05.1c-.59,2.65-2.26,3.99-4.96,3.99-8.02,0-16.04,0-24.05,0-.19,0-.39,0-.58,0C3.39,30.9.03,27.51.01,23.38c-.02-5.25,0-10.49,0-15.74,0-.89.17-1.76.48-2.59C1.65,1.94,4.5,0,7.92,0c9.15,0,18.31,0,27.46,0,.11,0,.22,0,.33,0,.61.04,1.04.35,1.31.89.05.09.1.19.14.28ZM3.13,7.85c0,.08-.02.18-.02.29,0,5.02,0,10.03,0,15.05,0,2.69,2.02,4.73,4.7,4.73,8.19.01,16.37,0,24.56,0,1.06,0,1.69-.63,1.69-1.7,0-1.44,0-2.88,0-4.32,0-3.62,0-7.24,0-10.87,0-.48-.1-.91-.44-1.26-.37-.37-.82-.46-1.33-.46-8.11,0-16.23,0-24.34,0-1.02,0-2.03-.13-2.98-.53-.63-.27-1.22-.61-1.85-.92Z"/>
      <path class="cls-1" d="M29.43,20.16c-.85,0-1.55-.68-1.56-1.53,0-.86.7-1.58,1.56-1.57.84,0,1.54.71,1.54,1.56,0,.84-.7,1.55-1.54,1.55Z"/>
    </g>
  </g>
</svg>
