<?xml version="1.0" encoding="UTF-8"?>
<svg id="Layer_2" data-name="Layer 2" xmlns="http://www.w3.org/2000/svg" viewBox="0 0 32.16 32.22">
  <defs>
    <style>
      .cls-1 {
        fill: #fff;
        stroke-width: 0px;
      }
    </style>
  </defs>
  <g id="Layer_4" data-name="Layer 4">
    <g>
      <path class="cls-1" d="M26.13,32.22H6.03s-.09-.05-.14-.05C2.42,31.68,0,28.91,0,25.4c0-4.07,0-8.14,0-12.21,0-2.46,1.02-4.39,3.05-5.77,3.07-2.09,6.15-4.17,9.24-6.24.52-.34,1.1-.6,1.68-.83.45-.18.94-.24,1.42-.36.46,0,.92,0,1.38,0,.26.05.53.11.79.16,1.1.23,2.03.81,2.94,1.43,2.9,1.97,5.81,3.93,8.71,5.9,1.25.85,2.13,2,2.6,3.45.16.49.24,1.01.35,1.52v13.72c-.02.06-.05.11-.06.17-.35,2.7-2.26,4.91-4.88,5.63-.36.1-.73.16-1.09.24ZM16.07,29.53c3.1,0,6.2,0,9.29,0,2.38,0,4.11-1.74,4.11-4.11,0-4.09,0-8.18,0-12.27,0-1.49-.61-2.65-1.84-3.48-3.07-2.08-6.13-4.16-9.21-6.22-1.54-1.04-3.19-1.02-4.72.02-3.04,2.06-6.09,4.12-9.13,6.17-1.25.84-1.89,2.01-1.89,3.52,0,4.09,0,8.18,0,12.27,0,.35.03.72.12,1.06.46,1.84,2.04,3.04,4,3.04,3.09,0,6.18,0,9.26,0Z"/>
      <path class="cls-1" d="M10.73,18.8c0-.86,0-1.72,0-2.58.01-1.65,1.14-2.78,2.79-2.79,1.71,0,3.41,0,5.12,0,1.66,0,2.79,1.14,2.8,2.81,0,1.71,0,3.42,0,5.13,0,1.67-1.14,2.8-2.8,2.8-1.71,0-3.41,0-5.12,0-1.64,0-2.78-1.14-2.79-2.79,0-.86,0-1.72,0-2.58ZM13.42,16.12v5.33h5.32v-5.33h-5.32Z"/>
    </g>
  </g>
</svg>
