<?xml version="1.0" encoding="UTF-8"?>
<svg id="Layer_2" data-name="Layer 2" xmlns="http://www.w3.org/2000/svg" viewBox="0 0 37.35 36.97">
  <defs>
    <style>
      .cls-1 {
        fill: #fff;
        stroke-width: 0px;
      }
    </style>
  </defs>
  <g id="Layer_4" data-name="Layer 4">
    <path class="cls-1" d="M0,18.12c.09-.47.15-.96.29-1.42.71-2.48,2.88-4.24,5.44-4.43.31-.02.48-.13.64-.41,1.34-2.49,3.26-4.4,5.76-5.73.23-.12.34-.26.38-.54C12.85,2.49,15.31.17,18.39,0c3.01-.16,5.7,1.91,6.38,4.91,0,.04.03.07.03.11-.07.73.37,1.05.95,1.38,2.25,1.29,3.98,3.1,5.21,5.38.17.32.36.44.72.47,2.82.26,5,2.24,5.57,5.02.71,3.49-1.82,6.98-5.37,7.34-.49.05-.74.22-.98.66-1.34,2.44-3.27,4.31-5.72,5.61-.19.1-.27.22-.29.44-.26,3.07-2.87,5.53-5.98,5.63-3.11.1-5.88-2.16-6.33-5.22-.08-.52-.26-.8-.73-1.06-2.41-1.34-4.25-3.26-5.53-5.7-.11-.21-.24-.28-.47-.31-3-.29-5.18-2.28-5.71-5.22C.07,19.25.03,19.05,0,18.85c0-.24,0-.49,0-.73ZM24.1,9.04c-1.26,2.06-3.04,3.19-5.43,3.19-2.39,0-4.18-1.15-5.43-3.19-1.69,1-3.01,2.31-3.98,3.98,2.06,1.27,3.18,3.07,3.17,5.45,0,2.39-1.16,4.19-3.2,5.43,1,1.71,2.32,3.04,4.01,4.02,1.26-2.06,3.05-3.19,5.42-3.19,2.39,0,4.19,1.15,5.43,3.2,1.69-1.01,3.02-2.34,4-4.04-2.05-1.25-3.19-3.04-3.2-5.42,0-2.39,1.13-4.2,3.17-5.45-.99-1.68-2.3-2.99-3.98-3.99ZM34.22,18.48c.02-1.7-1.35-3.11-3.04-3.13-1.74-.02-3.16,1.35-3.18,3.08-.02,1.72,1.35,3.13,3.06,3.15,1.75.02,3.14-1.34,3.15-3.09ZM6.21,21.57c1.71.01,3.12-1.37,3.13-3.08.01-1.72-1.37-3.13-3.07-3.14-1.72-.01-3.12,1.36-3.14,3.07-.02,1.75,1.34,3.14,3.09,3.16ZM18.66,34.07c1.74,0,3.13-1.39,3.13-3.13,0-1.7-1.41-3.11-3.12-3.1-1.71,0-3.11,1.41-3.11,3.11,0,1.71,1.39,3.11,3.1,3.11ZM18.68,2.9c-1.73,0-3.13,1.41-3.12,3.14.01,1.7,1.42,3.1,3.13,3.09,1.71,0,3.11-1.42,3.1-3.12,0-1.72-1.4-3.11-3.11-3.1Z"/>
  </g>
</svg>
