<?xml version="1.0" encoding="UTF-8"?>
<svg id="Layer_2" data-name="Layer 2" xmlns="http://www.w3.org/2000/svg" viewBox="0 0 30.55 30.55">
  <defs>
    <style>
      .cls-1 {
        fill: #fff;
        stroke-width: 0px;
      }
    </style>
  </defs>
  <g id="Layer_4" data-name="Layer 4">
    <path class="cls-1" d="M27.03,0s.06.04.1.06c.91.37,1.15,1.34.51,2.09-.76.89-1.53,1.78-2.3,2.67-2.87,3.32-5.74,6.63-8.59,9.96-.53.61-1.12,1.07-1.95,1.14-.82.07-1.52-.21-2.11-.79-.72-.72-1.45-1.45-2.17-2.17-.07-.07-.12-.16-.2-.27-1.85,2.2-3.65,4.34-5.46,6.5.7.86,1.51,1.57,2.43,2.16,5.99,3.82,14.07.36,15.41-6.62.16-.86.15-1.76.19-2.64.03-.55.36-1.03.88-1.19.53-.17,1.1,0,1.4.45.14.21.24.49.25.74.15,2.72-.53,5.24-2,7.53-.26.4-.54.78-.84,1.19.47.46.93.92,1.4,1.39,2.03,2.03,4.06,4.06,6.1,6.09.38.38.56.81.41,1.35-.25.88-1.3,1.21-2.01.64-.1-.08-.19-.17-.28-.27-2.39-2.39-4.78-4.78-7.17-7.17-.08-.08-.13-.18-.19-.26-.53.36-.98.7-1.46.99-7.3,4.48-16.83.63-18.97-7.65-.18-.69-.24-1.41-.36-2.11C.04,13.72.02,13.63,0,13.54c0-.56,0-1.11,0-1.67.02-.07.04-.13.05-.2.11-1.51.48-2.96,1.15-4.32C3.09,3.5,6.14,1.11,10.35.23,10.85.13,11.37.08,11.87,0,12.45,0,13.03,0,13.6,0c.52.08,1.04.14,1.56.24,1.39.26,2.69.75,3.92,1.46.47.27.7.7.64,1.25-.06.56-.39.93-.93,1.09-.41.12-.77-.01-1.14-.21-2.95-1.57-5.99-1.74-9.04-.39-4.43,1.96-6.79,6.57-5.85,11.33.14.71.41,1.4.63,2.16.14-.15.21-.22.27-.3,1.51-1.81,3.02-3.62,4.52-5.43.32-.39.7-.71,1.18-.87,1.04-.35,1.96-.13,2.74.63.81.79,1.6,1.6,2.41,2.42.12-.14.23-.26.33-.38,3.56-4.11,7.13-8.22,10.68-12.33C25.8.38,26.07.13,26.43,0,26.63,0,26.83,0,27.03,0Z"/>
  </g>
</svg>
