<?xml version="1.0" encoding="UTF-8"?>
<svg id="Layer_2" data-name="Layer 2" xmlns="http://www.w3.org/2000/svg" viewBox="0 0 37.33 35.8">
  <defs>
    <style>
      .cls-1 {
        fill: #fff;
        stroke-width: 0px;
      }
    </style>
  </defs>
  <g id="Layer_4" data-name="Layer 4">
    <g>
      <path class="cls-1" d="M37.33,30.25c-.07.32-.14.64-.22.95-.71,2.66-3.14,4.56-5.89,4.59-1.37.01-2.75.06-4.11-.08-2.85-.28-5.25-2.87-5.3-5.73-.06-3.34-.03-6.68-.02-10.02,0-.99-.06-1.99.22-2.97.75-2.64,3.16-4.51,5.9-4.52,1.33,0,2.68-.07,4,.07,2.79.29,4.96,2.49,5.35,5.26,0,.07.04.13.07.2v12.25ZM34.22,24.15c0-1.79,0-3.57,0-5.36-.01-1.9-1.32-3.2-3.21-3.22-.96,0-1.92,0-2.88,0-1.91.01-3.23,1.33-3.24,3.23,0,3.55-.01,7.1,0,10.65,0,1.88,1.34,3.2,3.22,3.22.97,0,1.94,0,2.92,0,.23,0,.46-.01.69-.06,1.5-.31,2.49-1.53,2.5-3.1.01-1.79,0-3.57,0-5.36Z"/>
      <path class="cls-1" d="M15.53,29.57v-3.12h-.41c-2.39,0-4.79,0-7.18,0-3.96,0-7.09-2.59-7.82-6.48-.08-.45-.11-.92-.11-1.38C0,15.02,0,11.45,0,7.88,0,3.9,2.76.7,6.7.09c.37-.06.75-.08,1.13-.08,6.19,0,12.37-.01,18.56,0,3.85,0,6.97,2.59,7.71,6.36.09.47.12.97.12,1.45,0,.84-.67,1.5-1.5,1.52-.86.02-1.56-.61-1.58-1.47-.05-1.6-.67-2.89-1.96-3.85-.78-.58-1.67-.89-2.65-.89-6.27,0-12.54-.01-18.81,0-2.47,0-4.55,2.03-4.58,4.51-.04,3.73-.04,7.46,0,11.19.03,2.52,2.11,4.5,4.69,4.51,3,.01,6,0,9,0,1.26,0,1.84.59,1.84,1.86,0,1.93,0,3.86,0,5.8,0,1.03-.63,1.68-1.65,1.68-2.05,0-4.11,0-6.16,0-.79,0-1.42-.59-1.52-1.36-.09-.74.38-1.47,1.11-1.67.19-.05.41-.06.61-.06,1.35,0,2.7,0,4.05,0,.13,0,.26,0,.41,0Z"/>
    </g>
  </g>
</svg>
